<svg version="1.2" xmlns="http://www.w3.org/2000/svg" viewBox="0 0 40 40" width="40" height="40">
	<title>icon-blockchain</title>
	<defs>
		<clipPath clipPathUnits="userSpaceOnUse" id="cp1">
			<path d="m0 0h40v40h-40z"/>
		</clipPath>
	</defs>
	<style>
		.s0 { fill: #99e39e } 
	</style>
	<filter id="f0">
		<feFlood flood-color="#00ced1" flood-opacity="1" />
		<feBlend mode="normal" in2="SourceGraphic"/>
		<feComposite in2="SourceAlpha" operator="in" />
	</filter>
	<g id="Clip-Path" clip-path="url(#cp1)" filter="url(#f0)">
		<g>
			<path class="s0" d="m39.4 9.2q0 0 0 0 0-0.1-0.1-0.1 0-0.1 0-0.1 0 0-0.1-0.1 0 0 0 0 0 0-0.1 0l-4.5-2.7q-0.2 0-0.3 0-0.2 0-0.3 0l-4.6 2.7q0 0 0 0-0.1 0-0.1 0 0 0.1 0 0.1 0 0-0.1 0.1 0 0 0 0.1 0 0 0 0 0 0.1 0 0.1v1.1l-4.1-2.5q0 0 0-0.1v-4.6q0 0 0 0 0-0.1 0-0.1 0-0.1-0.1-0.1 0-0.1 0-0.1 0 0 0 0-0.1-0.1-0.1-0.1 0 0-0.1 0l-4.5-2.7q-0.2 0-0.3 0-0.1 0-0.3 0l-4.5 2.7h-0.1q0 0 0 0 0 0-0.1 0.1 0 0 0 0 0 0 0 0.1-0.1 0-0.1 0.1 0 0 0 0 0 0.1 0 0.1v4.6q0 0.1 0 0.1l-4.1 2.5v-1.1q0 0 0-0.1 0 0 0 0 0-0.1 0-0.1-0.1-0.1-0.1-0.1 0 0 0-0.1-0.1 0-0.1 0 0 0 0 0l-4.6-2.7q-0.1 0-0.3 0-0.1 0-0.3 0l-4.5 2.7q-0.1 0-0.1 0 0 0 0 0-0.1 0.1-0.1 0.1 0 0 0 0.1-0.1 0-0.1 0.1 0 0 0 0 0 0.1 0 0.1v4.6q0 0.1 0.1 0.3 0 0.1 0.2 0.2l4.3 2.3v6.3l-4.3 2.4q-0.1 0.1-0.1 0.1 0 0 0 0-0.1 0.1-0.1 0.1 0 0 0 0-0.1 0.1-0.1 0.2 0 0 0 0 0 0.1 0 0.1v4.6q0 0.1 0.1 0.3 0 0.1 0.2 0.2l4.5 2.5q0.1 0 0.1 0 0 0 0.1 0 0.1 0 0.2 0 0.1 0 0.1 0 0 0 0.1 0l3.9-2.2 5 3.4v2.3q0 0.1 0.1 0.2 0 0.2 0.2 0.2l4.5 2.5q0.1 0.1 0.1 0.1 0 0 0.1 0 0.1 0 0.2 0 0.1 0 0.1 0 0 0 0.1-0.1l4.5-2.5q0.2 0 0.2-0.2 0.1-0.1 0.1-0.2v-2.3l5-3.4 3.9 2.2q0.1 0 0.1 0 0 0 0.1 0 0.1 0 0.2 0 0.1 0 0.1 0 0 0 0.1 0l4.5-2.5q0.2-0.1 0.2-0.2 0.1-0.2 0.1-0.3v-4.6q0 0 0-0.1 0 0 0 0 0-0.1-0.1-0.2 0 0 0 0 0 0-0.1-0.1 0 0 0 0 0 0-0.1-0.1l-4.3-2.4v-6.3l4.3-2.3q0.2-0.1 0.2-0.2 0.1-0.2 0.1-0.3v-4.6q0 0 0-0.1zm-16.1 23.3l-3.3 1.8-3.3-1.8-0.1-0.1 3.4-2 3.4 2zm-13.5-18.9l-3.5 1.9v-3.3l3.5-1.9zm-4 10.3l3.4 2-0.1 0.1-3.3 1.8-3.4-1.8-0.1-0.1zm4.5 1.3l-4-2.2v-6.3l3.7-2 5 3.3v4zm5.7-17.8v-3.3l3.5 1.9v3.3zm8 0l-3.4 1.9v-3.3l3.4-1.9zm-4 8.2l3.5 2h-0.2l-3.3 1.8-3.3-1.8h-0.1zm-4.1 2.9l3.5 1.9v3.3l-3.5-1.9zm4.6 1.9l3.5-1.9v3.3l-3.5 1.9zm4.6-2.5l5-3.3 3.6 2v6.3l-4 2.3-4.6-3.3zm8.6-5.9v3.4l-3.5-1.9v-3.4zm-3.4 18.1v-3.4l3.4 1.9v3.4zm7.4-4.2l-3.3 1.8-3.4-1.8-0.1-0.1 3.5-2 3.4 2zm-3.3-18.6l3.4 1.9-0.1 0.1-3.3 1.8-3.3-1.8-0.2-0.1zm-5.1 6.7l-4.6 3-4-2.2v-4.2l3.7-2 4.9 3.1v2.2q0 0.1 0 0.1zm-9.1-12.8l3.4 2-3.3 1.8-0.1 0.1-0.2-0.1-3.3-1.8zm-4.2 7.4l3.7 2v4.1l-4 2.3-4.7-3q0-0.1 0-0.1v-2.2zm-10-1.3l3.4 2-0.1 0.1-3.3 1.8-3.4-1.8-0.1-0.1zm-4 2.9l3.5 1.9v3.3l-3.5-1.9zm0 16.6l3.5 1.9v3.3l-3.5-1.9zm4.6 1.9l3.4-1.9v3.4l-3.4 1.9zm4.5 1.9q0-0.1 0-0.2v-4.3l4.7-3.3 4 2.2v4.4l-4.3 2.4h-0.1q0 0.1 0 0.1 0 0-0.1 0 0 0.1 0 0.1 0 0 0 0-0.1 0.1-0.1 0.2 0 0 0 0 0 0.1 0 0.1v1zm5.2 3.7v-1.1l3.4 1.9v3.4l-3.4-1.9zm4.5 4.1v-3.3l3.5-1.9v3.3zm4.6-6.1q0-0.1 0-0.1 0-0.1 0-0.1-0.1 0-0.1-0.1 0 0 0 0-0.1-0.1-0.1-0.1 0 0 0-0.1-0.1 0-0.1 0l-4.3-2.5v-4.3l4-2.2 4.6 3.3v4.3q0 0.1 0.1 0.1l-4.1 2.8zm9.7-0.4v-3.3l3.5-1.9v3.3zm0-16.6v-3.3l3.4-1.9v3.3z"/>
		</g>
	</g>
</svg>