<svg version="1.2" xmlns="http://www.w3.org/2000/svg" viewBox="0 0 40 40" width="40" height="40">
	<title>icon-consulting</title>
	<defs>
		<clipPath clipPathUnits="userSpaceOnUse" id="cp1">
			<path d="m0 0h40v40h-40z"/>
		</clipPath>
	</defs>
	<style>
		.s0 { fill: #99e39e } 
	</style>
	<filter id="f0">
		<feFlood flood-color="#00ced1" flood-opacity="1" />
		<feBlend mode="normal" in2="SourceGraphic"/>
		<feComposite in2="SourceAlpha" operator="in" />
	</filter>
	<g id="Clip-Path" clip-path="url(#cp1)" filter="url(#f0)">
		<g>
			<path class="s0" d="m20 10.4l4.7-3.9h6.3v-6.5h-15.5v6.5h4.5zm-3.2-5.3v-3.9h12.9v3.9h-5.4l-3 2.5v-2.5z"/>
			<path class="s0" d="m18.1 2.6h1.3v1.3h-1.3z"/>
			<path class="s0" d="m20.6 2.6h5.2v1.3h-5.2z"/>
			<path class="s0" d="m27.1 2.6h1.3v1.3h-1.3z"/>
			<path class="s0" d="m32.8 38.7l-0.5-5.2c2.2-0.4 3.8-2.2 3.8-4.5v-8.4h-2.6v-0.8c0-0.9-0.4-1.7-1.2-2.1 0.8-0.7 1.2-1.7 1.2-2.9v-1.3c0-2.1-1.7-3.8-3.8-3.8-2.2 0-3.9 1.7-3.9 3.8v1.3c0 1.7 1.1 3.1 2.6 3.7l-3.5 3.4h-3.6c-0.1-1-0.8-2-1.9-2.3l-2.6-0.7v-1.2c0.8-0.7 1.3-1.7 1.3-2.9v-1.3c0-2.1-1.8-3.8-3.9-3.8-2.1 0-3.9 1.7-3.9 3.8v1.3c0 1.2 0.5 2.2 1.3 2.9v1.2l-2.6 0.7c-1.1 0.3-1.9 1.4-1.9 2.5v2.4h-2.6v3.9h1.3v10.3h-5.8v1.3h40v-1.3zm-5.7-10.3v-3l4.5-4.5c0.4-0.4 0.6-0.8 0.6-1.3q0 0.1 0 0.2v7.9c0 1.1-0.9 2-1.9 2h-5.2v-1.3zm-1.9 5.1h3.3l0.5 5.2h-3.8zm4.6 0h1.3l0.5 5.2h-1.3zm3.8-5.8v-5.8h1.3v7.1c0 1.7-1.5 3.2-3.2 3.2h-6.5v-1.3h5.2c1.7 0 3.2-1.5 3.2-3.2zm-6.5-12.9v-1.3c0-1.5 1.2-2.6 2.6-2.6 1.4 0 2.6 1.1 2.6 2.6v1.3c0 1.4-1.2 2.5-2.6 2.5-1.4 0-2.6-1.1-2.6-2.5zm-1.6 8.3l4.3-4.3q0.2-0.2 0.5-0.2c0.4 0 0.7 0.4 0.7 0.8q0 0.3-0.2 0.5l-4.6 4.5h-6.8c-0.4 0-0.7-0.3-0.7-0.6 0-0.4 0.3-0.7 0.7-0.7zm-13.8-9.6c0-1.5 1.1-2.6 2.6-2.6 1.4 0 2.5 1.1 2.5 2.6v1.3c0 1.4-1.1 2.5-2.5 2.5-1.5 0-2.6-1.1-2.6-2.5zm2.6 5.1q0.6 0 1.2-0.2v0.7c-0.1 0.2-0.6 0.8-1.2 0.8-0.7 0-1.2-0.6-1.3-0.8v-0.7q0.6 0.2 1.3 0.2zm-5.8 3.4c0-0.6 0.3-1.1 0.9-1.2l2.6-0.8c0.4 0.5 1.1 1.2 2.3 1.2 1.1 0 1.8-0.7 2.2-1.2l2.6 0.8c0.5 0.1 0.9 0.5 0.9 1h-0.6c-1 0-1.9 0.9-1.9 2q0 0.3 0.1 0.6h-9.1zm-2.6 3.7h20v1.3h-20zm1.3 5.2h1.9v-1.3h-1.9v-1.3h16.7v1.3h-13.5v1.3h13.5v7.7h-1.5l-1.3-2.6h-11.1l-1.3 2.6h-1.5zm13.8 7.8h-10.9l0.7-1.3h9.5z"/>
		</g>
	</g>
</svg>