<svg version="1.2" xmlns="http://www.w3.org/2000/svg" viewBox="0 0 40 40" width="40" height="40">
	<title>icon-Services</title>
	<defs>
		<clipPath clipPathUnits="userSpaceOnUse" id="cp1">
			<path d="m0 0h40v40h-40z"/>
		</clipPath>
	</defs>
	<style>
		.s0 { fill: #99e39e } 
	</style>
	<filter id="f0">
		<feFlood flood-color="#00ced1" flood-opacity="1" />
		<feBlend mode="normal" in2="SourceGraphic"/>
		<feComposite in2="SourceAlpha" operator="in" />
	</filter>
	<g id="Clip-Path" clip-path="url(#cp1)" filter="url(#f0)">
		<g>
			<path class="s0" d="m20 25c2.8 0 5-2.2 5-5 0-2.8-2.2-5-5-5-2.8 0-5 2.2-5 5 0 2.8 2.2 5 5 5zm0-8.8c2.1 0.1 3.8 1.7 3.8 3.8 0 2.1-1.7 3.8-3.8 3.8-2.1 0-3.8-1.7-3.8-3.8 0-2.1 1.7-3.7 3.8-3.7z"/>
			<path class="s0" d="m20 22.5c1.4 0 2.5-1.1 2.5-2.5 0-1.4-1.1-2.5-2.5-2.5-1.4 0-2.5 1.1-2.5 2.5 0 1.4 1.1 2.5 2.5 2.5zm0-3.8c0.7 0 1.3 0.6 1.3 1.3-0.1 0.7-0.6 1.2-1.3 1.2-0.7 0-1.3-0.5-1.3-1.2 0.1-0.7 0.6-1.3 1.3-1.3z"/>
			<path class="s0" d="m15.9 27.4l1.1-0.5q0.1 0 0.3 0.1l0.4 1.1h4.6l0.4-1.1q0.2-0.1 0.3-0.1l1.1 0.5 3.3-3.3-0.5-1.1q0-0.1 0.1-0.3l1.1-0.4v-4.6l-1.1-0.4q-0.1-0.2-0.1-0.3l0.5-1.1-3.3-3.3-1.1 0.5q-0.1 0-0.3-0.1l-0.4-1.1h-4.6l-0.4 1.1q-0.2 0.1-0.3 0.1l-1.1-0.5-3.3 3.3 0.5 1.1q0 0.1-0.1 0.3l-1.1 0.4v4.6l1.1 0.4q0.1 0.2 0.1 0.3l-0.5 1.1zm-2.8-5.9v-2.9l0.9-0.3 0.1-0.3q0.1-0.4 0.3-0.7l0.1-0.3-0.4-0.8 2.1-2.1 0.8 0.4 0.3-0.1q0.3-0.2 0.7-0.3l0.3-0.1 0.3-0.9h2.9l0.3 0.9 0.2 0.1q0.4 0.1 0.8 0.3l0.2 0.1 0.9-0.4 2 2.1-0.4 0.8 0.1 0.3q0.2 0.3 0.3 0.7l0.1 0.3 0.9 0.3v2.9l-0.9 0.3-0.1 0.2q-0.1 0.4-0.3 0.8l-0.1 0.2 0.4 0.9-2 2-0.9-0.4-0.2 0.1q-0.4 0.2-0.8 0.3l-0.2 0.1-0.3 0.9h-2.9l-0.3-0.9-0.3-0.1q-0.4-0.1-0.7-0.3l-0.3-0.1-0.8 0.4-2.1-2 0.4-0.9-0.1-0.2q-0.2-0.4-0.3-0.8l-0.1-0.2z"/>
			<path class="s0" d="m8.8 29.4h-6.3c-1 0-1.9 0.8-1.9 1.9v6.2c0 1 0.9 1.9 1.9 1.9h6.2c1.1 0 1.9-0.9 1.9-1.9v-6.2c0-1.1-0.8-1.9-1.9-1.9zm0.7 8.1c0 0.3-0.3 0.6-0.7 0.6h-6.2c-0.3 0-0.6-0.3-0.6-0.6v-6.2c0-0.4 0.3-0.7 0.6-0.7h6.2c0.4 0 0.7 0.3 0.7 0.7z"/>
			<path class="s0" d="m37.5 15h-6.3c-1 0-1.8 0.8-1.8 1.9v6.2c0 1.1 0.8 1.9 1.8 1.9h6.3c1 0 1.9-0.8 1.9-1.9v-6.2c0-1.1-0.9-1.9-1.9-1.9zm0.6 8.1c0 0.4-0.3 0.7-0.6 0.7h-6.3c-0.3 0-0.6-0.3-0.6-0.7v-6.2c0-0.4 0.3-0.6 0.6-0.6h6.3c0.3 0 0.6 0.2 0.6 0.6z"/>
			<path class="s0" d="m6.3 10.6h6.2c1 0 1.9-0.8 1.9-1.8v-6.3c0-1-0.9-1.9-1.9-1.9h-6.3c-1 0-1.8 0.9-1.8 1.9v6.3c0 1 0.8 1.8 1.8 1.8zm-0.6-8.1c0-0.3 0.3-0.6 0.6-0.6h6.3c0.3 0 0.6 0.3 0.6 0.6v6.3c0 0.3-0.3 0.6-0.6 0.6h-6.3c-0.3 0-0.6-0.3-0.6-0.6z"/>
			<path class="s0" d="m4.4 35.4l-0.8-0.8-0.9 0.8 1.7 1.7 4.2-4.2-0.9-0.8z"/>
			<path class="s0" d="m12.3 4.2l-0.9-0.9-3.3 3.3-0.8-0.8-0.9 0.9 1.7 1.7z"/>
			<path class="s0" d="m33.1 21l-0.8-0.8-0.9 0.9 1.7 1.7 4.2-4.2-0.9-0.9z"/>
			<path class="s0" d="m29.2 28.1l0.3 1.3 3.6-0.9c-2.9 4.4-7.8 7.1-13.1 7.1q-3.4 0-6.5-1.4l-0.6 1.1c2.3 1.1 4.6 1.6 7.1 1.6 5.7 0 10.9-2.9 14-7.5l0.4 3.2 1.2-0.2-0.7-5.7z"/>
			<path class="s0" d="m7.5 22.6l-1.2-0.2-0.8 3.1q-1.1-2.7-1.1-5.5 0-3.5 1.4-6.6l-1.1-0.5c-1 2.2-1.6 4.6-1.6 7.1q0 3 1.2 6l-2.7-1.5-0.7 1 5.2 2.9z"/>
			<path class="s0" d="m21 5.7l-2.1-1.3h1.1c5.8 0 11.2 3.2 13.9 8.4l1.1-0.6c-2.9-5.6-8.7-9.1-15-9.1h-1.1l2.1-1.3-0.7-1.1-4.6 3 4.6 3.1z"/>
		</g>
	</g>
</svg>